<svg width="2242" height="464" viewBox="0 0 2242 464" fill="none" xmlns="http://www.w3.org/2000/svg">
<rect x="0.835938" y="0.861572" width="18.5158" height="18.5158" fill="white" fill-opacity="0.2"/>
<rect x="148.957" y="0.861572" width="18.5158" height="18.5158" fill="white" fill-opacity="0.2"/>
<rect x="0.835938" y="148.99" width="18.5158" height="18.5158" fill="white" fill-opacity="0.2"/>
<rect x="148.957" y="148.99" width="18.5158" height="18.5158" fill="white" fill-opacity="0.2"/>
<rect x="297.078" y="0.861572" width="18.5158" height="18.5158" fill="white" fill-opacity="0.2"/>
<rect x="445.198" y="0.861572" width="18.5158" height="18.5158" fill="white" fill-opacity="0.2"/>
<rect x="297.078" y="148.99" width="18.5158" height="18.5158" fill="white" fill-opacity="0.2"/>
<rect x="445.198" y="148.99" width="18.5158" height="18.5158" fill="white" fill-opacity="0.2"/>
<rect x="0.835938" y="297.118" width="18.5158" height="18.5158" fill="white" fill-opacity="0.2"/>
<rect x="148.957" y="297.118" width="18.5158" height="18.5158" fill="white" fill-opacity="0.2"/>
<rect x="0.835938" y="445.247" width="18.5158" height="18.5158" fill="white" fill-opacity="0.2"/>
<rect x="148.957" y="445.247" width="18.5158" height="18.5158" fill="white" fill-opacity="0.2"/>
<rect x="297.078" y="297.118" width="18.5158" height="18.5158" fill="white" fill-opacity="0.2"/>
<rect x="445.198" y="297.118" width="18.5158" height="18.5158" fill="white" fill-opacity="0.2"/>
<rect x="297.078" y="445.247" width="18.5158" height="18.5158" fill="white" fill-opacity="0.2"/>
<rect x="445.198" y="445.247" width="18.5158" height="18.5158" fill="white" fill-opacity="0.2"/>
<rect x="593.318" y="0.861572" width="18.5158" height="18.5158" fill="white" fill-opacity="0.2"/>
<rect x="741.439" y="0.861572" width="18.5158" height="18.5158" fill="white" fill-opacity="0.2"/>
<rect x="593.318" y="148.99" width="18.5158" height="18.5158" fill="white" fill-opacity="0.2"/>
<rect x="741.439" y="148.99" width="18.5158" height="18.5158" fill="white" fill-opacity="0.2"/>
<rect x="889.562" y="0.861572" width="18.5158" height="18.5158" fill="white" fill-opacity="0.2"/>
<rect x="1037.68" y="0.861572" width="18.5158" height="18.5158" fill="white" fill-opacity="0.2"/>
<rect x="889.562" y="148.99" width="18.5158" height="18.5158" fill="white" fill-opacity="0.2"/>
<rect x="1037.68" y="148.99" width="18.5158" height="18.5158" fill="white" fill-opacity="0.2"/>
<rect x="593.318" y="297.118" width="18.5158" height="18.5158" fill="white" fill-opacity="0.2"/>
<rect x="741.439" y="297.118" width="18.5158" height="18.5158" fill="white" fill-opacity="0.2"/>
<rect x="593.318" y="445.247" width="18.5158" height="18.5158" fill="white" fill-opacity="0.2"/>
<rect x="741.439" y="445.247" width="18.5158" height="18.5158" fill="white" fill-opacity="0.2"/>
<rect x="889.562" y="297.118" width="18.5158" height="18.5158" fill="white" fill-opacity="0.2"/>
<rect x="1037.68" y="297.118" width="18.5158" height="18.5158" fill="white" fill-opacity="0.2"/>
<rect x="889.562" y="445.247" width="18.5158" height="18.5158" fill="white" fill-opacity="0.2"/>
<rect x="1037.68" y="445.247" width="18.5158" height="18.5158" fill="white" fill-opacity="0.2"/>
<rect x="1185.8" y="0.861572" width="18.5158" height="18.5158" fill="white" fill-opacity="0.2"/>
<rect x="1333.92" y="0.861572" width="18.5158" height="18.5158" fill="white" fill-opacity="0.2"/>
<rect x="1185.8" y="148.99" width="18.5158" height="18.5158" fill="white" fill-opacity="0.2"/>
<rect x="1333.92" y="148.99" width="18.5158" height="18.5158" fill="white" fill-opacity="0.2"/>
<rect x="1482.04" y="0.861572" width="18.5158" height="18.5158" fill="white" fill-opacity="0.2"/>
<rect x="1630.17" y="0.861572" width="18.5158" height="18.5158" fill="white" fill-opacity="0.2"/>
<rect x="1482.04" y="148.99" width="18.5158" height="18.5158" fill="white" fill-opacity="0.2"/>
<rect x="1630.17" y="148.99" width="18.5158" height="18.5158" fill="white" fill-opacity="0.2"/>
<rect x="1185.8" y="297.118" width="18.5158" height="18.5158" fill="white" fill-opacity="0.2"/>
<rect x="1333.92" y="297.118" width="18.5158" height="18.5158" fill="white" fill-opacity="0.2"/>
<rect x="1185.8" y="445.247" width="18.5158" height="18.5158" fill="white" fill-opacity="0.2"/>
<rect x="1333.92" y="445.247" width="18.5158" height="18.5158" fill="white" fill-opacity="0.2"/>
<rect x="1482.04" y="297.118" width="18.5158" height="18.5158" fill="white" fill-opacity="0.2"/>
<rect x="1630.17" y="297.118" width="18.5158" height="18.5158" fill="white" fill-opacity="0.2"/>
<rect x="1482.04" y="445.247" width="18.5158" height="18.5158" fill="white" fill-opacity="0.2"/>
<rect x="1630.17" y="445.247" width="18.5158" height="18.5158" fill="white" fill-opacity="0.2"/>
<rect x="1778.29" y="0.861572" width="18.5158" height="18.5158" fill="white" fill-opacity="0.2"/>
<rect x="1926.41" y="0.861572" width="18.5158" height="18.5158" fill="white" fill-opacity="0.2"/>
<rect x="1778.29" y="148.99" width="18.5158" height="18.5158" fill="white" fill-opacity="0.2"/>
<rect x="1926.41" y="148.99" width="18.5158" height="18.5158" fill="white" fill-opacity="0.2"/>
<rect x="2074.53" y="0.861816" width="18.5158" height="18.5158" fill="white" fill-opacity="0.2"/>
<rect x="2222.65" y="0.861816" width="18.5158" height="18.5158" fill="white" fill-opacity="0.2"/>
<rect x="2074.53" y="148.99" width="18.5158" height="18.5158" fill="white" fill-opacity="0.2"/>
<rect x="2222.65" y="148.99" width="18.5158" height="18.5158" fill="white" fill-opacity="0.2"/>
<rect x="1778.29" y="297.118" width="18.5158" height="18.5158" fill="white" fill-opacity="0.2"/>
<rect x="1926.41" y="297.118" width="18.5158" height="18.5158" fill="white" fill-opacity="0.2"/>
<rect x="1778.29" y="445.247" width="18.5158" height="18.5158" fill="white" fill-opacity="0.2"/>
<rect x="1926.41" y="445.247" width="18.5158" height="18.5158" fill="white" fill-opacity="0.2"/>
<rect x="2074.53" y="297.118" width="18.5158" height="18.5158" fill="white" fill-opacity="0.2"/>
<rect x="2222.65" y="297.118" width="18.5158" height="18.5158" fill="white" fill-opacity="0.2"/>
<rect x="2074.53" y="445.247" width="18.5158" height="18.5158" fill="white" fill-opacity="0.2"/>
<rect x="2222.65" y="445.247" width="18.5158" height="18.5158" fill="white" fill-opacity="0.2"/>
</svg>
