<svg width="670" height="999" viewBox="0 0 670 999" fill="none" xmlns="http://www.w3.org/2000/svg">
<path d="M218.076 15.7289L51.858 144.25L49.3561 810.949L444.352 983.705L620.332 826.096L636.028 132.823L218.076 15.7289Z" fill="white"/>
<path d="M448.071 981.005L451.913 271.396L635.9 135.139L620.014 822.594L448.071 981.005Z" fill="#C4C4C4"/>
<path d="M54.5598 141.495L447.845 271.172L628.939 131.852L219.093 15.7849L54.5598 141.495Z" fill="#E3E3E3"/>
<path d="M451.501 269.631L51.858 144.25M451.501 269.631L636.028 132.823M451.501 269.631L444.352 983.705M51.858 144.25L218.076 15.7289L636.028 132.823M51.858 144.25L49.3561 810.949L444.352 983.705M636.028 132.823L620.332 826.096L444.352 983.705" stroke="black" stroke-width="12" stroke-linejoin="bevel"/>
<circle cx="171.664" cy="370.49" r="26.2407" fill="#343434"/>
<circle cx="309.041" cy="414.011" r="26.2407" fill="#343434"/>
<path d="M276.011 386.873C312.919 348.486 346.924 356.205 359.313 364.863" stroke="#343434" stroke-width="8"/>
<path d="M214.87 379.845C218.905 330.528 187.747 310.368 171.664 306.453" stroke="#343434" stroke-width="8"/>
<path d="M266.378 493.042C216.013 435.105 182.422 432.905 171.922 439.047" stroke="#343434" stroke-width="8"/>
<path d="M296.362 345.379C315.724 343.286 332.994 341.164 350.203 351.362C359.485 356.862 360.559 364.314 364.731 373.121C367.641 379.264 366.178 387.835 366.178 394.487C366.178 399.446 360.357 403.169 357.894 408.095" stroke="#FF0000" stroke-width="10" stroke-linecap="round" stroke-linejoin="round"/>
<path d="M396.944 414.011C395.894 409.231 393.828 403.046 391.619 398.628C389.216 393.822 388.561 390.758 387.214 385.875C384.88 377.414 386.714 368.816 392.21 361.946C394.263 359.38 396.412 354.955 398.127 351.953C399.403 349.721 404.398 347.668 406.673 346.826C413.723 344.215 420.152 341.829 427.71 341.829" stroke="#FF0000" stroke-width="10" stroke-linecap="round" stroke-linejoin="round"/>
<path d="M317.662 298.047C321.747 306.054 325.721 315.047 332.125 321.45C337.385 326.71 343.981 328.984 350.795 331.771C358.51 334.927 363.78 337.096 372.094 337.096C378.419 337.096 382.075 334.538 387.477 331.837C389.593 330.779 391.465 331.427 393.46 329.93C396.037 327.998 397.672 325.718 399.902 323.488C402.759 320.631 410.519 315.995 411.144 312.247C411.492 310.158 414.707 309.039 415.877 307.25C417.009 305.519 417.511 303.251 418.835 301.663C420.313 299.89 420.688 295.524 421.793 293.314" stroke="#FF0000" stroke-width="10" stroke-linecap="round" stroke-linejoin="round"/>
</svg>
