<svg width="670" height="999" viewBox="0 0 670 999" fill="none" xmlns="http://www.w3.org/2000/svg">
<path d="M217.561 15.0138L51.3432 143.535L48.8413 810.234L443.837 982.99L619.817 825.381L635.513 132.108L217.561 15.0138Z" fill="white"/>
<path d="M447.556 980.29L451.399 270.681L635.385 134.424L619.499 821.878L447.556 980.29Z" fill="#C4C4C4"/>
<path d="M54.0452 140.779L447.33 270.457L628.425 131.137L218.578 15.0697L54.0452 140.779Z" fill="#E3E3E3"/>
<path d="M450.986 268.916L51.3432 143.535M450.986 268.916L635.513 132.108M450.986 268.916L443.837 982.99M51.3432 143.535L217.561 15.0138L635.513 132.108M51.3432 143.535L48.8413 810.234L443.837 982.99M635.513 132.108L619.817 825.381L443.837 982.99" stroke="black" stroke-width="12" stroke-linejoin="bevel"/>
<path d="M511.581 427.555C496.168 426.707 485.301 412.019 486.192 395.814C487.084 379.609 499.497 366.202 514.91 367.05C530.322 367.898 541.19 382.586 540.298 398.791C539.407 414.995 526.994 428.403 511.581 427.555Z" fill="#F7E273" stroke="black" stroke-width="8"/>
<path d="M460.087 335.658C451.089 335.163 445.096 326.682 445.585 317.782C446.075 308.882 452.962 301.11 461.96 301.605C470.959 302.1 476.952 310.581 476.462 319.481C475.973 328.381 469.085 336.153 460.087 335.658Z" fill="#F7E273" stroke="black" stroke-width="8"/>
<path d="M396.509 268.341C389.09 267.933 384.296 260.98 384.687 253.878C385.078 246.775 390.605 240.39 398.025 240.798C405.444 241.207 410.238 248.159 409.847 255.262C409.456 262.364 403.929 268.749 396.509 268.341Z" fill="#F7E273" stroke="black" stroke-width="8"/>
<path d="M396.222 400.451C385.054 399.836 377.412 389.256 378.038 377.885C378.663 366.515 387.42 356.837 398.587 357.451C409.755 358.065 417.397 368.646 416.771 380.016C416.146 391.387 407.389 401.065 396.222 400.451Z" fill="#F7E273" stroke="black" stroke-width="8"/>
<path d="M317.249 248.284C306.081 247.67 298.44 237.089 299.065 225.719C299.691 214.348 308.447 204.67 319.615 205.284C330.782 205.899 338.424 216.479 337.799 227.85C337.173 239.22 328.417 248.898 317.249 248.284Z" fill="#F7E273" stroke="black" stroke-width="8"/>
<circle cx="171.15" cy="369.775" r="26.2407" fill="#343434"/>
<circle cx="308.527" cy="413.296" r="26.2407" fill="#343434"/>
<path d="M313.716 345.357C365.118 364.641 371.15 402.588 367.742 419.152" stroke="#343434" stroke-width="8"/>
<path d="M180.156 304.969C130.682 304.08 112.546 336.457 109.662 352.757" stroke="#343434" stroke-width="8"/>
<path d="M190.855 462.159C225.048 497.927 260.812 488.019 274.42 478.595" stroke="#343434" stroke-width="8"/>
</svg>
