<svg width="36" height="28" viewBox="0 0 36 28" fill="none" xmlns="http://www.w3.org/2000/svg">
<g clip-path="url(#clip0)">
<path d="M14.9119 19.4L25.969 19.4L33.308 4.80024L23.4425 4.80024L14.9119 19.4Z" fill="white"/>
<path d="M33.5079 4.32208L25.9531 19.0157L27.9794 24.4259L35.0157 10.8558L33.5079 4.32208Z" fill="#BDBDBD"/>
<path d="M14.467 18.9649L25.9805 18.9649L28.0234 23.9063L15.3202 24.0414L14.467 18.9649Z" fill="#E0E0E0"/>
<path d="M22.7579 8.78525L22.2422 8.27744L20.7182 9.5565L19.3171 23.7405L20.4197 23.7405L20.584 22.6448L22.8371 21.5765L23.8533 15.6773L23.1797 15.0703L21.7962 15.0703L22.7579 8.78525Z" fill="#CCCCCC"/>
<path d="M28.179 24.089L15.1135 24.089L14.2209 19.795L23.177 4.47367L33.624 4.47367L35.2222 10.6095L28.179 24.089Z" stroke="#616161" stroke-linejoin="bevel"/>
<path d="M12.7644 21.479H2.56737L1.87437 18.608L11.7084 1.481H18.2424L9.92637 16.067H13.6224L14.1834 12.437L15.8994 9.269H21.0804L20.0244 16.067H22.0044L21.2784 20.489L19.1664 21.479L18.4404 26H12.0384L12.7644 21.479Z" fill="white"/>
<path d="M12.7644 21.479L13.7517 21.6376L13.9378 20.479H12.7644V21.479ZM2.56737 21.479L1.59529 21.7136L1.78003 22.479H2.56737V21.479ZM1.87437 18.608L1.00715 18.1101L0.808829 18.4555L0.902285 18.8426L1.87437 18.608ZM11.7084 1.481V0.480999H11.1294L10.8412 0.983062L11.7084 1.481ZM18.2424 1.481L19.1111 1.97629L19.9636 0.480999H18.2424V1.481ZM9.92637 16.067L9.05764 15.5717L8.20512 17.067H9.92637V16.067ZM13.6224 16.067V17.067H14.4797L14.6106 16.2197L13.6224 16.067ZM14.1834 12.437L13.3041 11.9607L13.2216 12.1131L13.1951 12.2843L14.1834 12.437ZM15.8994 9.269V8.269H15.3038L15.0201 8.79272L15.8994 9.269ZM21.0804 9.269L22.0685 9.4225L22.2477 8.269H21.0804V9.269ZM20.0244 16.067L19.0362 15.9135L18.857 17.067H20.0244V16.067ZM22.0044 16.067L22.9912 16.229L23.1819 15.067H22.0044V16.067ZM21.2784 20.489L21.7028 21.3945L22.1798 21.1709L22.2652 20.651L21.2784 20.489ZM19.1664 21.479L18.7419 20.5735L18.2629 20.7981L18.179 21.3204L19.1664 21.479ZM18.4404 26V27H19.2926L19.4277 26.1586L18.4404 26ZM12.0384 26L11.051 25.8414L10.865 27H12.0384V26ZM12.7644 20.479H2.56737V22.479H12.7644V20.479ZM3.53945 21.2444L2.84645 18.3734L0.902285 18.8426L1.59529 21.7136L3.53945 21.2444ZM2.74158 19.1059L12.5756 1.97894L10.8412 0.983062L1.00715 18.1101L2.74158 19.1059ZM11.7084 2.481H18.2424V0.480999H11.7084V2.481ZM17.3736 0.985707L9.05764 15.5717L10.7951 16.5623L19.1111 1.97629L17.3736 0.985707ZM9.92637 17.067H13.6224V15.067H9.92637V17.067ZM14.6106 16.2197L15.1716 12.5897L13.1951 12.2843L12.6341 15.9143L14.6106 16.2197ZM15.0627 12.9133L16.7787 9.74528L15.0201 8.79272L13.3041 11.9607L15.0627 12.9133ZM15.8994 10.269H21.0804V8.269H15.8994V10.269ZM20.0922 9.1155L19.0362 15.9135L21.0125 16.2205L22.0685 9.4225L20.0922 9.1155ZM20.0244 17.067H22.0044V15.067H20.0244V17.067ZM21.0176 15.905L20.2916 20.327L22.2652 20.651L22.9912 16.229L21.0176 15.905ZM20.8539 19.5835L18.7419 20.5735L19.5908 22.3845L21.7028 21.3945L20.8539 19.5835ZM18.179 21.3204L17.453 25.8414L19.4277 26.1586L20.1537 21.6376L18.179 21.3204ZM18.4404 25H12.0384V27H18.4404V25ZM13.0257 26.1586L13.7517 21.6376L11.777 21.3204L11.051 25.8414L13.0257 26.1586Z" fill="#616161"/>
<path d="M12.7455 15.555L10.4705 15.6092L14.6661 8.17889L15.5 9.00006L13.6122 12.0341L12.7455 15.555Z" fill="#616161"/>
</g>
<defs>
<clipPath id="clip0">
<rect width="36" height="28" fill="white"/>
</clipPath>
</defs>
</svg>
