<svg width="5000" height="3800" viewBox="0 0 5000 3600" fill="none" xmlns="http://www.w3.org/2000/svg" class="img-fluid" id="floating-foursucres">
<rect id="sq-1" x="2921.21" y="1342.99" width="249" height="249" fill="#CCCCCC" fill-opacity="0.8"/>
<rect id="sq-1" x="2896.21" y="1317.99" width="299" height="299" stroke="white" stroke-opacity="0.95" stroke-width="50"/>
<rect id="sq-2" x="2679.21" y="3245.99" width="249" height="249" fill="#CCCCCC" fill-opacity="0.8"/>
<rect id="sq-2" x="2654.21" y="3220.99" width="299" height="299" stroke="white" stroke-opacity="0.95" stroke-width="50"/>
<path id="logo-sucres" d="M3936.52 2746.93L3432.71 2552.15L2937.62 911.27L3784.18 195.93L4333.37 455.215L4880.47 2151.9L3936.52 2746.93Z" fill="#535769"/>
<path id="logo-sucres" d="M4325.47 1950.14L3432.71 2552.15M4325.47 1950.14L4880.47 2151.9M4325.47 1950.14L3784.18 195.93M3432.71 2552.15L3936.52 2746.93L4880.47 2151.9M3432.71 2552.15L2937.62 911.27L3784.18 195.93M4880.47 2151.9L4333.37 455.215L3784.18 195.93" stroke="white" stroke-width="62"/>
<path id="logo-sucres" d="M4701.21 707.992L4747.71 822.492H4467.71L4416.21 707.992H4701.21Z" fill="white"/>
<path id="logo-sucres" d="M4494.21 525.992L4540.71 640.492H4260.71L4209.21 525.992H4494.21Z" fill="#535769"/>
<path id="logo-sucres" d="M4867.21 1866.99L4913.71 1981.49H4633.71L4582.21 1866.99H4867.21Z" fill="#535769"/>
<path id="logo-sucres" d="M4494.21 1670.99L4540.71 1785.49H4260.71L4209.21 1670.99H4494.21Z" fill="white"/>
<path id="logo-sucres" d="M4785.21 1230.99L4831.71 1345.49H4633.71L4582.21 1230.99H4785.21Z" fill="white"/>
<path id="logo-sucres" d="M3194.21 1172.99L3240.71 1287.49H3042.71L2991.21 1172.99H3194.21Z" fill="white"/>
<path id="logo-four" d="M1887.48 2393.01L2414.72 1112.57L2433.48 1067.01H2384.21H1790.21H1768.16L1759.72 1087.38L1114.72 2644.38L1109.63 2656.65L1114.47 2669.02L1216.47 2930.02L1224.67 2951.01H1247.21H2141.21V3329.01V3362.01H2174.21H2756.21H2789.21V3329.01V2938.4L2950.96 2857.52L2969.21 2848.4V2828.01V2426.01V2393.01H2936.21H2789.21V1808.01V1775.01H2756.21H2285.21H2262.56L2254.41 1796.14L2143.41 2084.14L2141.21 2089.87V2096.01V2393.01H1887.48Z" fill="#535769" stroke="white" stroke-width="66"/>
<path id="logo-four" d="M1680.21 1259.49L1728.21 1138.99H1357.21L1299.71 1259.49H1680.21Z" fill="white"/>
<path id="logo-four" d="M1153.71 2561.49L1201.71 2440.99H830.705L773.205 2561.49H1153.71Z" fill="white"/>
<path id="logo-four" d="M2262.71 1471.99L2314.21 1357.49H2034.21L1982.71 1471.99H2262.71Z" fill="white"/>
<path id="logo-four" d="M2147.71 3192.49V3077.99H1919.21V3192.49H2147.71Z" fill="white"/>
<path id="logo-four" d="M2793.71 2168.49V2053.99H2565.21V2168.49H2793.71Z" fill="white"/>
<path id="logo-four" d="M1520.71 1342.99L1474.21 1457.49H1754.21L1805.71 1342.99H1520.71Z" fill="#535769"/>
<path id="logo-four" d="M2079.71 1902.99L2033.21 2017.49H2313.21L2364.71 1902.99H2079.71Z" fill="#535769"/>
<rect id="sq-3" x="50.2051" y="3134.99" width="249" height="249" fill="#CCCCCC" fill-opacity="0.8"/>
<rect id="sq-3" x="25.2051" y="3109.99" width="299" height="299" stroke="white" stroke-opacity="0.95" stroke-width="50"/>
<rect id="sq-4" x="577.205" y="1374.99" width="249" height="249" fill="#CCCCCC" fill-opacity="0.8"/>
<rect id="sq-4" x="552.205" y="1349.99" width="299" height="299" stroke="white" stroke-opacity="0.95" stroke-width="50"/>
<rect id="sq-5" x="1140.21" y="2067.99" width="249" height="249" fill="#CCCCCC" fill-opacity="0.8"/>
<rect id="sq-5" x="1115.21" y="2042.99" width="299" height="299" stroke="white" stroke-opacity="0.95" stroke-width="50"/>
<rect id="sq-6" x="3116.21" y="515.994" width="249" height="249" fill="#CCCCCC" fill-opacity="0.8"/>
<rect id="sq-6" x="3091.21" y="490.994" width="299" height="299" stroke="white" stroke-opacity="0.95" stroke-width="50"/>
<rect id="sq-7" x="4416.21" y="50.9934" width="249" height="249" fill="#CCCCCC" fill-opacity="0.8"/>
<rect id="sq-7" x="4391.21" y="25.9934" width="299" height="299" stroke="white" stroke-opacity="0.95" stroke-width="50"/>
<rect id="sq-8" x="4167.21" y="2440.99" width="249" height="249" fill="#CCCCCC" fill-opacity="0.8"/>
<rect id="sq-8" x="4142.21" y="2415.99" width="299" height="299" stroke="white" stroke-opacity="0.95" stroke-width="50"/>
</svg>
