<svg width="547" height="245" viewBox="0 0 547 245" fill="none" xmlns="http://www.w3.org/2000/svg">
<path d="M43.75 127L94.75 93.5L185.25 105L179.75 179L151.75 207H43.75V127Z" fill="white"/>
<path d="M211.25 164L205.25 132L286.25 33L329.75 59.8477V23L412.75 6.5L450.25 27.5L446.375 112L503.25 144.5L495.25 216L408.75 240.5L338.25 186.5L332.906 144.5L272.75 216L211.25 164Z" fill="white"/>
<path d="M292.75 69L287.25 33.5L348.75 72.5L359.75 111L292.75 69Z" fill="#E9E9E9"/>
<path d="M368.75 50.5L331.25 22L412.25 6L449.25 27.5L368.75 50.5Z" fill="#E7E7E7"/>
<path d="M503.25 144L419.75 96.5L360.75 111.5L355.25 120L419.75 168.5L503.25 144Z" fill="#EEEEEE"/>
<path d="M184.282 105.5L150.782 134L45.7819 126L94.2819 92.5L184.282 105.5Z" fill="#D3D3D3"/>
<path d="M293.25 70L286.75 34L205.75 131.5L212.75 164L293.25 70Z" fill="#B4B4B4"/>
<path d="M366.25 110.5V50L329.25 23.5V59.5L349.75 72L360.25 110.5H366.25Z" fill="#B4B4B4"/>
<path d="M419.25 169.5L354.25 120.5L332.25 145L338.25 185.5L409.25 239L419.25 169.5Z" fill="#ECECEC"/>
<path d="M43.2787 207.593V127.875L152.351 136.218V207.593H43.2787Z" fill="#F8F8F8"/>
<path d="M271.565 215.419L209 162.413L291.551 69L358.895 110.275L271.565 215.419Z" fill="url(#paint0_linear)"/>
<path d="M43.75 127L94.75 93.5L185.25 105M43.75 127L151.75 135M43.75 127V207H151.75M151.75 135L185.25 105M151.75 135V207M185.25 105L179.75 179L151.75 207M211.25 164L205.25 132L286.25 33M211.25 164L292.75 68.5M211.25 164L272.75 216L332.906 144.5M292.75 68.5L286.25 33M292.75 68.5L360.5 112M286.25 33L329.75 59.8477M360.5 112L350.25 72.5L329.75 59.8477M360.5 112L353.5 120.023M360.5 112L332.906 144.5M360.5 112L366.25 110.424M329.75 23V59.8477M329.75 23L366.25 50.5M329.75 23L412.75 6.5L450.25 27.5M503.25 144.5L419.25 169M503.25 144.5L495.25 216L408.75 240.5M503.25 144.5L446.375 112M419.25 169L353.5 120.023M419.25 169L408.75 240.5M353.5 120.023L332.906 144.5M332.906 144.5L338.25 186.5L408.75 240.5M446.375 112L419.25 96.5L366.25 110.424M446.375 112L450.25 27.5M450.25 27.5L366.25 50.5M366.25 50.5V110.424" stroke="url(#paint1_linear)" stroke-width="4"/>
<path d="M343 133L277 89L262 63L253.5 73.5L262 105L323 156.5L343 133Z" fill="#B60000" stroke="#575757" stroke-width="4"/>
<path d="M264 99.9382L271.846 90.5056L270.803 88.43L264 99.9382Z" stroke="#850000" stroke-width="3"/>
<path d="M266.5 42.5L261 61L256 66.5L246.5 68.5V57.5H257.5L250.5 50.5L266.5 42.5Z" fill="#B90000"/>
<path d="M261 61L266.5 42.5L250.5 50.5L257.5 57.5M261 61L257.5 57.5M261 61L256 66.5L246.5 68.5V57.5H257.5" stroke="#575757" stroke-width="3"/>
<defs>
<linearGradient id="paint0_linear" x1="310.668" y1="81.5999" x2="271.999" y2="215.419" gradientUnits="userSpaceOnUse">
<stop stop-color="#EBEBEB"/>
<stop offset="1" stop-color="white" stop-opacity="0"/>
</linearGradient>
<linearGradient id="paint1_linear" x1="128.603" y1="115.586" x2="461.505" y2="217.54" gradientUnits="userSpaceOnUse">
<stop stop-color="#3D3D3D"/>
<stop offset="1" stop-color="#202020" stop-opacity="0.55"/>
</linearGradient>
</defs>
</svg>
