<svg width="2201" height="498" viewBox="0 0 2201 498" fill="none" xmlns="http://www.w3.org/2000/svg">
<path d="M536.569 436.433C496.769 436.433 462.518 432.508 433.819 424.657L443.566 362.122C468.746 364.559 499.069 365.777 534.538 365.777C549.971 365.777 560.664 364.425 566.622 361.716C572.848 358.74 576.639 353.595 577.993 346.285L578.806 341.819C579.076 340.467 579.212 338.706 579.212 336.54C579.212 331.127 576.909 327.336 572.308 325.17C567.974 323.006 560.8 321.921 550.783 321.921H534.538C510.441 321.921 491.353 315.29 477.275 302.024C463.466 288.76 456.562 271.705 456.562 250.859C456.562 245.174 456.968 239.355 457.781 233.398L461.436 210.252C466.037 182.1 477.951 161.66 497.175 148.936C516.396 136.214 542.795 129.851 576.369 129.851C608.046 129.851 639.452 133.777 670.589 141.627L660.843 204.161C635.391 201.725 603.849 200.507 566.216 200.507C547.534 200.507 537.109 206.87 534.944 219.592L534.132 224.059C533.59 227.307 533.32 229.61 533.32 230.962C533.32 242.062 540.224 247.611 554.032 247.611H571.901C598.434 247.611 619.012 254.108 633.632 267.102C648.523 279.826 655.969 296.475 655.969 317.049C655.969 321.921 655.563 327.2 654.751 332.885L650.283 361.31C647.574 378.365 642.295 392.307 634.444 403.135C626.862 413.965 615.085 422.22 599.112 427.905C583.407 433.59 562.561 436.433 536.569 436.433ZM783.155 436.433C748.498 436.433 722.642 428.853 705.585 413.693C688.798 398.262 680.406 374.17 680.406 341.413C680.406 330.585 682.166 314.072 685.685 291.872L711.271 132.287H790.059L762.849 304.054C762.579 306.763 761.9 311.5 760.818 318.267C759.736 324.764 759.194 330.179 759.194 334.509C759.194 345.067 761.9 352.919 767.316 358.061C772.732 363.206 781.8 365.777 794.526 365.777C804.273 365.777 812.126 364.019 818.081 360.498C824.309 356.709 829.453 350.482 833.514 341.819C837.575 332.885 840.824 320.297 843.261 304.054L870.471 132.287H949.259L920.019 316.236C914.875 349.264 906.481 374.44 894.839 391.765C883.467 409.092 868.983 420.868 851.384 427.093C833.784 433.32 811.041 436.433 783.155 436.433ZM1061.06 436.433C1025.59 436.433 998.924 427.093 981.055 408.414C963.456 389.465 954.657 363.07 954.657 329.231C954.657 311.636 956.281 292.55 959.53 271.975C967.111 223.247 981.055 187.379 1001.36 164.367C1021.67 141.357 1051.31 129.851 1090.3 129.851C1112.78 129.851 1132.4 131.881 1149.19 135.942C1165.98 139.732 1179.92 144.335 1191.02 149.748L1180.87 212.283C1169.5 208.764 1156.91 205.922 1143.1 203.755C1129.29 201.591 1116.56 200.507 1104.92 200.507C1091.38 200.507 1080.69 202.267 1072.84 205.786C1064.99 209.034 1058.08 216.749 1052.13 228.932C1046.44 241.114 1041.57 259.929 1037.51 285.375C1034.26 306.763 1032.63 321.651 1032.63 330.043C1032.63 342.767 1036.29 351.97 1043.6 357.655C1050.91 363.07 1063.77 365.777 1082.18 365.777C1097.34 365.777 1109.93 365.507 1119.95 364.965C1130.24 364.153 1142.69 362.934 1157.31 361.31L1147.57 423.439C1125.64 432.102 1096.8 436.433 1061.06 436.433ZM1226.27 132.287H1344.86C1374.1 132.287 1396.03 138.65 1410.65 151.372C1425.27 164.097 1432.58 183.994 1432.58 211.065C1432.58 219.186 1431.77 228.119 1430.14 237.865C1427.71 254.38 1423.24 268.05 1416.74 278.878C1410.52 289.436 1404.15 297.287 1397.65 302.43C1391.16 307.575 1383.85 312.448 1375.72 317.049L1409.43 433.996H1329.43L1303.84 330.043H1273.79L1257.14 433.996H1178.35L1226.27 132.287ZM1316.43 267.508C1328.34 267.508 1336.6 264.938 1341.2 259.793C1345.81 254.65 1349.06 245.852 1350.95 233.398C1351.49 230.692 1351.76 227.037 1351.76 222.434C1351.76 215.937 1350 211.065 1346.48 207.816C1342.96 204.567 1337.14 202.943 1329.02 202.943H1293.69L1283.53 267.508H1316.43ZM1515.25 436.433C1497.11 436.433 1480.87 432.238 1466.52 423.845C1452.44 415.453 1445.4 400.565 1445.4 379.177C1445.4 374.576 1445.8 369.431 1446.61 363.746L1471.39 208.222C1479.24 157.599 1508.62 132.287 1559.52 132.287C1593.9 132.287 1635.06 134.317 1682.98 138.378L1672.42 204.973H1571.7C1563.58 204.973 1557.76 206.87 1554.24 210.658C1550.72 214.179 1548.28 219.998 1546.93 228.119L1544.08 247.205L1643.99 251.265L1634.24 313.8L1532.71 317.861L1529.06 341.413C1528.79 342.767 1528.65 344.527 1528.65 346.692C1528.65 357.249 1535.02 362.528 1547.74 362.528H1647.65L1637.09 429.124C1612.18 431.56 1590.65 433.32 1572.51 434.402C1554.64 435.757 1535.56 436.433 1515.25 436.433ZM1779.85 436.433C1740.05 436.433 1705.8 432.508 1677.1 424.657L1686.84 362.122C1712.02 364.559 1742.35 365.777 1777.82 365.777C1793.25 365.777 1803.94 364.425 1809.9 361.716C1816.13 358.74 1819.92 353.595 1821.27 346.285L1822.08 341.819C1822.35 340.467 1822.49 338.706 1822.49 336.54C1822.49 331.127 1820.19 327.336 1815.58 325.17C1811.25 323.006 1804.08 321.921 1794.06 321.921H1777.82C1753.72 321.921 1734.63 315.29 1720.55 302.024C1706.74 288.76 1699.84 271.705 1699.84 250.859C1699.84 245.174 1700.25 239.355 1701.06 233.398L1704.71 210.252C1709.32 182.1 1721.23 161.66 1740.45 148.936C1759.68 136.214 1786.07 129.851 1819.65 129.851C1851.32 129.851 1882.73 133.777 1913.87 141.627L1904.12 204.161C1878.67 201.725 1847.13 200.507 1809.49 200.507C1790.81 200.507 1780.39 206.87 1778.22 219.592L1777.41 224.059C1776.87 227.307 1776.6 229.61 1776.6 230.962C1776.6 242.062 1783.5 247.611 1797.31 247.611H1815.18C1841.71 247.611 1862.29 254.108 1876.91 267.102C1891.8 279.826 1899.25 296.475 1899.25 317.049C1899.25 321.921 1898.84 327.2 1898.03 332.885L1893.56 361.31C1890.85 378.365 1885.57 392.307 1877.72 403.135C1870.14 413.965 1858.36 422.22 1842.39 427.905C1826.69 433.59 1805.84 436.433 1779.85 436.433Z" fill="white"/>
<path d="M1934.45 231.202C1933.63 231.202 1932.98 230.999 1932.5 230.593C1932.09 230.187 1931.89 229.619 1931.89 228.888V228.401L1934.2 214.148C1934.36 213.254 1934.73 212.523 1935.3 211.955C1935.87 211.386 1936.64 211.102 1937.61 211.102H1951.37C1953.08 211.102 1953.93 211.833 1953.93 213.295V214.148L1951.61 228.401C1951.29 230.268 1950.15 231.202 1948.2 231.202H1934.45ZM1996 231.69C1989.02 231.69 1983.17 230.878 1978.46 229.253C1973.83 227.629 1970.17 224.624 1967.49 220.239C1964.81 215.853 1963.47 209.721 1963.47 201.844C1963.47 196.24 1964.08 189.783 1965.3 182.474C1967.09 171.51 1969.73 162.942 1973.22 156.77C1976.79 150.598 1981.55 146.212 1987.47 143.613C1993.49 141.015 2001.2 139.715 2010.62 139.715C2017.45 139.715 2023.17 140.568 2027.8 142.273C2032.51 143.898 2036.25 147.024 2039.01 151.654C2041.77 156.202 2043.15 162.658 2043.15 171.023C2043.15 176.221 2042.55 182.555 2041.33 190.027C2039.54 201.316 2036.86 209.965 2033.29 215.975C2029.79 221.903 2025.12 226.005 2019.27 228.279C2013.51 230.553 2005.75 231.69 1996 231.69ZM1999.66 210.371C2003.56 210.371 2006.68 209.518 2009.04 207.813C2011.4 206.107 2013.22 203.63 2014.52 200.382C2015.82 197.052 2016.92 192.585 2017.81 186.982C2018.95 179.835 2019.52 174.596 2019.52 171.267C2019.52 167.206 2018.58 164.485 2016.72 163.105C2014.93 161.643 2011.8 160.912 2007.33 160.912C2003.44 160.912 2000.31 161.643 1997.95 163.105C1995.68 164.485 1993.85 166.922 1992.47 170.414C1991.09 173.906 1989.87 178.941 1988.82 185.52C1987.68 192.342 1987.11 197.377 1987.11 200.625C1987.11 204.28 1988.04 206.838 1989.91 208.3C1991.78 209.681 1995.03 210.371 1999.66 210.371ZM2059.01 140.446H2094.59C2103.36 140.446 2109.94 142.355 2114.33 146.172C2118.71 149.989 2120.91 155.958 2120.91 164.079C2120.91 166.516 2120.66 169.196 2120.18 172.119C2119.44 177.073 2118.1 181.175 2116.16 184.423C2114.29 187.591 2112.38 189.946 2110.43 191.489C2108.48 193.032 2106.29 194.494 2103.85 195.874L2113.96 230.959H2089.96L2082.28 199.773H2073.27L2068.27 230.959H2044.64L2059.01 140.446ZM2086.06 181.012C2089.64 181.012 2092.11 180.241 2093.49 178.698C2094.87 177.155 2095.85 174.515 2096.42 170.779C2096.58 169.967 2096.66 168.871 2096.66 167.49C2096.66 165.541 2096.13 164.079 2095.08 163.105C2094.02 162.13 2092.28 161.643 2089.84 161.643H2079.24L2076.19 181.012H2086.06ZM2148.62 231.69C2140.18 231.69 2134.13 229.416 2130.47 224.868C2126.9 220.239 2125.11 212.889 2125.11 202.818C2125.11 197.539 2125.84 190.271 2127.3 181.012C2129.5 166.962 2133.96 156.567 2140.71 149.826C2147.45 143.085 2156.46 139.715 2167.75 139.715C2175.14 139.715 2181.28 140.121 2186.15 140.933C2191.11 141.664 2195.74 142.72 2200.04 144.101L2197.12 162.617C2190.86 161.399 2182.09 160.79 2170.8 160.79C2166.09 160.79 2162.47 161.521 2159.96 162.983C2157.44 164.445 2155.49 166.922 2154.11 170.414C2152.73 173.906 2151.51 179.144 2150.45 186.129C2149.48 192.301 2148.99 197.093 2148.99 200.504C2148.99 206.757 2151.71 209.884 2157.15 209.884C2159.59 209.884 2162.23 209.762 2165.07 209.518C2168 209.275 2170.19 208.99 2171.65 208.666L2173.48 196.971H2160.93L2163.98 178.21L2168.48 177.845C2174.74 177.276 2179.98 176.992 2184.2 176.992C2190.54 176.992 2195.57 177.073 2199.31 177.236L2190.78 230.959H2172.99L2170.8 224.99C2168.28 226.614 2164.71 228.157 2160.08 229.619C2155.53 230.999 2151.71 231.69 2148.62 231.69Z" fill="white"/>
<path d="M221.134 406.028H14.0722L0 347.737L199.691 0H332.372L163.505 296.146H238.557L249.949 222.445L284.794 158.123H390.001L368.557 296.146H408.763L394.021 385.928L351.134 406.028L336.392 497.82H206.392L221.134 406.028Z" fill="white"/>
<path d="M1958 284.237H1974.89L1998.38 418.267L2065.95 284.237H2082.85L2006 436H1984.99L1958 284.237ZM2039.95 422.597L2101.97 368.779C2113.23 359.019 2121.47 349.877 2126.69 341.354C2132.05 332.832 2134.72 325.065 2134.72 318.054C2134.72 311.73 2132.6 306.919 2128.34 303.62C2124.08 300.183 2116.87 298.465 2106.71 298.465H2065.09L2067.15 285.887C2070.72 285.612 2073.47 285.337 2075.39 285.062C2077.18 284.925 2081.78 284.581 2089.19 284.031C2096.61 283.344 2103.82 283 2110.83 283C2137.61 283 2151 293.379 2151 314.136C2151 333.794 2138.64 354.551 2113.92 376.408L2063.24 420.947H2141.52L2139.05 436H2037.89L2039.95 422.597Z" fill="white"/>
</svg>
