<svg width="2592" height="538" viewBox="0 0 2592 538" fill="none" xmlns="http://www.w3.org/2000/svg">
<path d="M586.569 436.433C546.769 436.433 512.518 432.508 483.819 424.657L493.566 362.122C518.746 364.559 549.069 365.777 584.538 365.777C599.971 365.777 610.664 364.425 616.622 361.716C622.848 358.74 626.639 353.595 627.993 346.285L628.806 341.819C629.076 340.467 629.212 338.706 629.212 336.54C629.212 331.127 626.909 327.336 622.308 325.17C617.974 323.006 610.8 321.921 600.783 321.921H584.538C560.441 321.921 541.353 315.29 527.275 302.024C513.466 288.76 506.562 271.705 506.562 250.859C506.562 245.174 506.968 239.355 507.781 233.398L511.436 210.252C516.037 182.1 527.951 161.66 547.175 148.936C566.396 136.214 592.795 129.851 626.369 129.851C658.046 129.851 689.452 133.777 720.589 141.627L710.843 204.161C685.391 201.725 653.849 200.507 616.216 200.507C597.534 200.507 587.109 206.87 584.944 219.592L584.132 224.059C583.59 227.307 583.32 229.61 583.32 230.962C583.32 242.062 590.224 247.611 604.032 247.611H621.901C648.434 247.611 669.012 254.108 683.632 267.102C698.523 279.826 705.969 296.475 705.969 317.049C705.969 321.921 705.563 327.2 704.751 332.885L700.283 361.31C697.574 378.365 692.295 392.307 684.444 403.135C676.862 413.965 665.085 422.22 649.112 427.905C633.407 433.59 612.561 436.433 586.569 436.433ZM833.155 436.433C798.498 436.433 772.642 428.853 755.585 413.693C738.798 398.262 730.406 374.17 730.406 341.413C730.406 330.585 732.166 314.072 735.685 291.872L761.271 132.287H840.059L812.849 304.054C812.579 306.763 811.9 311.5 810.818 318.267C809.736 324.764 809.194 330.179 809.194 334.509C809.194 345.067 811.9 352.919 817.316 358.061C822.732 363.206 831.8 365.777 844.526 365.777C854.273 365.777 862.126 364.019 868.081 360.498C874.309 356.709 879.453 350.482 883.514 341.819C887.575 332.885 890.824 320.297 893.261 304.054L920.471 132.287H999.259L970.019 316.236C964.875 349.264 956.481 374.44 944.839 391.765C933.467 409.092 918.983 420.868 901.384 427.093C883.784 433.32 861.041 436.433 833.155 436.433ZM1111.06 436.433C1075.59 436.433 1048.92 427.093 1031.05 408.414C1013.46 389.465 1004.66 363.07 1004.66 329.231C1004.66 311.636 1006.28 292.55 1009.53 271.975C1017.11 223.247 1031.05 187.379 1051.36 164.367C1071.67 141.357 1101.31 129.851 1140.3 129.851C1162.78 129.851 1182.4 131.881 1199.19 135.942C1215.98 139.732 1229.92 144.335 1241.02 149.748L1230.87 212.283C1219.5 208.764 1206.91 205.922 1193.1 203.755C1179.29 201.591 1166.56 200.507 1154.92 200.507C1141.38 200.507 1130.69 202.267 1122.84 205.786C1114.99 209.034 1108.08 216.749 1102.13 228.932C1096.44 241.114 1091.57 259.929 1087.51 285.375C1084.26 306.763 1082.63 321.651 1082.63 330.043C1082.63 342.767 1086.29 351.97 1093.6 357.655C1100.91 363.07 1113.77 365.777 1132.18 365.777C1147.34 365.777 1159.93 365.507 1169.95 364.965C1180.24 364.153 1192.69 362.934 1207.31 361.31L1197.57 423.439C1175.64 432.102 1146.8 436.433 1111.06 436.433ZM1276.27 132.287H1394.86C1424.1 132.287 1446.03 138.65 1460.65 151.372C1475.27 164.097 1482.58 183.994 1482.58 211.065C1482.58 219.186 1481.77 228.119 1480.14 237.865C1477.71 254.38 1473.24 268.05 1466.74 278.878C1460.52 289.436 1454.15 297.287 1447.65 302.43C1441.16 307.575 1433.85 312.448 1425.72 317.049L1459.43 433.996H1379.43L1353.84 330.043H1323.79L1307.14 433.996H1228.35L1276.27 132.287ZM1366.43 267.508C1378.34 267.508 1386.6 264.938 1391.2 259.793C1395.81 254.65 1399.06 245.852 1400.95 233.398C1401.49 230.692 1401.76 227.037 1401.76 222.434C1401.76 215.937 1400 211.065 1396.48 207.816C1392.96 204.567 1387.14 202.943 1379.02 202.943H1343.69L1333.53 267.508H1366.43ZM1565.25 436.433C1547.11 436.433 1530.87 432.238 1516.52 423.845C1502.44 415.453 1495.4 400.565 1495.4 379.177C1495.4 374.576 1495.8 369.431 1496.61 363.746L1521.39 208.222C1529.24 157.599 1558.62 132.287 1609.52 132.287C1643.9 132.287 1685.06 134.317 1732.98 138.378L1722.42 204.973H1621.7C1613.58 204.973 1607.76 206.87 1604.24 210.658C1600.72 214.179 1598.28 219.998 1596.93 228.119L1594.08 247.205L1693.99 251.265L1684.24 313.8L1582.71 317.861L1579.06 341.413C1578.79 342.767 1578.65 344.527 1578.65 346.692C1578.65 357.249 1585.02 362.528 1597.74 362.528H1697.65L1687.09 429.124C1662.18 431.56 1640.65 433.32 1622.51 434.402C1604.64 435.757 1585.56 436.433 1565.25 436.433ZM1829.85 436.433C1790.05 436.433 1755.8 432.508 1727.1 424.657L1736.84 362.122C1762.02 364.559 1792.35 365.777 1827.82 365.777C1843.25 365.777 1853.94 364.425 1859.9 361.716C1866.13 358.74 1869.92 353.595 1871.27 346.285L1872.08 341.819C1872.35 340.467 1872.49 338.706 1872.49 336.54C1872.49 331.127 1870.19 327.336 1865.58 325.17C1861.25 323.006 1854.08 321.921 1844.06 321.921H1827.82C1803.72 321.921 1784.63 315.29 1770.55 302.024C1756.74 288.76 1749.84 271.705 1749.84 250.859C1749.84 245.174 1750.25 239.355 1751.06 233.398L1754.71 210.252C1759.32 182.1 1771.23 161.66 1790.45 148.936C1809.68 136.214 1836.07 129.851 1869.65 129.851C1901.32 129.851 1932.73 133.777 1963.87 141.627L1954.12 204.161C1928.67 201.725 1897.13 200.507 1859.49 200.507C1840.81 200.507 1830.39 206.87 1828.22 219.592L1827.41 224.059C1826.87 227.307 1826.6 229.61 1826.6 230.962C1826.6 242.062 1833.5 247.611 1847.31 247.611H1865.18C1891.71 247.611 1912.29 254.108 1926.91 267.102C1941.8 279.826 1949.25 296.475 1949.25 317.049C1949.25 321.921 1948.84 327.2 1948.03 332.885L1943.56 361.31C1940.85 378.365 1935.57 392.307 1927.72 403.135C1920.14 413.965 1908.36 422.22 1892.39 427.905C1876.69 433.59 1855.84 436.433 1829.85 436.433Z" fill="white"/>
<path d="M1984.45 231.202C1983.63 231.202 1982.98 230.999 1982.5 230.593C1982.09 230.187 1981.89 229.619 1981.89 228.888V228.401L1984.2 214.148C1984.36 213.254 1984.73 212.523 1985.3 211.955C1985.87 211.386 1986.64 211.102 1987.61 211.102H2001.37C2003.08 211.102 2003.93 211.833 2003.93 213.295V214.148L2001.61 228.401C2001.29 230.268 2000.15 231.202 1998.2 231.202H1984.45ZM2046 231.69C2039.02 231.69 2033.17 230.878 2028.46 229.253C2023.83 227.629 2020.17 224.624 2017.49 220.239C2014.81 215.853 2013.47 209.721 2013.47 201.844C2013.47 196.24 2014.08 189.783 2015.3 182.474C2017.09 171.51 2019.73 162.942 2023.22 156.77C2026.79 150.598 2031.55 146.212 2037.47 143.613C2043.49 141.015 2051.2 139.715 2060.62 139.715C2067.45 139.715 2073.17 140.568 2077.8 142.273C2082.51 143.898 2086.25 147.024 2089.01 151.654C2091.77 156.202 2093.15 162.658 2093.15 171.023C2093.15 176.221 2092.55 182.555 2091.33 190.027C2089.54 201.316 2086.86 209.965 2083.29 215.975C2079.79 221.903 2075.12 226.005 2069.27 228.279C2063.51 230.553 2055.75 231.69 2046 231.69ZM2049.66 210.371C2053.56 210.371 2056.68 209.518 2059.04 207.813C2061.4 206.107 2063.22 203.63 2064.52 200.382C2065.82 197.052 2066.92 192.585 2067.81 186.982C2068.95 179.835 2069.52 174.596 2069.52 171.267C2069.52 167.206 2068.58 164.485 2066.72 163.105C2064.93 161.643 2061.8 160.912 2057.33 160.912C2053.44 160.912 2050.31 161.643 2047.95 163.105C2045.68 164.485 2043.85 166.922 2042.47 170.414C2041.09 173.906 2039.87 178.941 2038.82 185.52C2037.68 192.342 2037.11 197.377 2037.11 200.625C2037.11 204.28 2038.04 206.838 2039.91 208.3C2041.78 209.681 2045.03 210.371 2049.66 210.371ZM2109.01 140.446H2144.59C2153.36 140.446 2159.94 142.355 2164.33 146.172C2168.71 149.989 2170.91 155.958 2170.91 164.079C2170.91 166.516 2170.66 169.196 2170.18 172.119C2169.44 177.073 2168.1 181.175 2166.16 184.423C2164.29 187.591 2162.38 189.946 2160.43 191.489C2158.48 193.032 2156.29 194.494 2153.85 195.874L2163.96 230.959H2139.96L2132.28 199.773H2123.27L2118.27 230.959H2094.64L2109.01 140.446ZM2136.06 181.012C2139.64 181.012 2142.11 180.241 2143.49 178.698C2144.87 177.155 2145.85 174.515 2146.42 170.779C2146.58 169.967 2146.66 168.871 2146.66 167.49C2146.66 165.541 2146.13 164.079 2145.08 163.105C2144.02 162.13 2142.28 161.643 2139.84 161.643H2129.24L2126.19 181.012H2136.06ZM2198.62 231.69C2190.18 231.69 2184.13 229.416 2180.47 224.868C2176.9 220.239 2175.11 212.889 2175.11 202.818C2175.11 197.539 2175.84 190.271 2177.3 181.012C2179.5 166.962 2183.96 156.567 2190.71 149.826C2197.45 143.085 2206.46 139.715 2217.75 139.715C2225.14 139.715 2231.28 140.121 2236.15 140.933C2241.11 141.664 2245.74 142.72 2250.04 144.101L2247.12 162.617C2240.86 161.399 2232.09 160.79 2220.8 160.79C2216.09 160.79 2212.47 161.521 2209.96 162.983C2207.44 164.445 2205.49 166.922 2204.11 170.414C2202.73 173.906 2201.51 179.144 2200.45 186.129C2199.48 192.301 2198.99 197.093 2198.99 200.504C2198.99 206.757 2201.71 209.884 2207.15 209.884C2209.59 209.884 2212.23 209.762 2215.07 209.518C2218 209.275 2220.19 208.99 2221.65 208.666L2223.48 196.971H2210.93L2213.98 178.21L2218.48 177.845C2224.74 177.276 2229.98 176.992 2234.2 176.992C2240.54 176.992 2245.57 177.073 2249.31 177.236L2240.78 230.959H2222.99L2220.8 224.99C2218.28 226.614 2214.71 228.157 2210.08 229.619C2205.53 230.999 2201.71 231.69 2198.62 231.69Z" fill="white"/>
<path d="M271.134 406.028H64.0722L50 347.737L249.691 0H382.372L213.505 296.146H288.557L299.949 222.445L334.794 158.123H440.001L418.557 296.146H458.763L444.021 385.928L401.134 406.028L386.392 497.82H256.392L271.134 406.028Z" fill="white"/>
<path d="M2008 284.237H2024.89L2048.38 418.267L2115.95 284.237H2132.85L2056 436H2034.99L2008 284.237ZM2089.95 422.597L2151.97 368.779C2163.23 359.019 2171.47 349.877 2176.69 341.354C2182.05 332.832 2184.72 325.065 2184.72 318.054C2184.72 311.73 2182.6 306.919 2178.34 303.62C2174.08 300.183 2166.87 298.465 2156.71 298.465H2115.09L2117.15 285.887C2120.72 285.612 2123.47 285.337 2125.39 285.062C2127.18 284.925 2131.78 284.581 2139.19 284.031C2146.61 283.344 2153.82 283 2160.83 283C2187.61 283 2201 293.379 2201 314.136C2201 333.794 2188.64 354.551 2163.92 376.408L2113.24 420.947H2191.52L2189.05 436H2087.89L2089.95 422.597Z" fill="white"/>
</svg>
