<svg width="670" height="999" viewBox="0 0 670 999" fill="none" xmlns="http://www.w3.org/2000/svg">
<path d="M218.076 15.7289L51.858 144.25L49.3561 810.949L444.352 983.705L620.332 826.096L636.028 132.823L218.076 15.7289Z" fill="white"/>
<path d="M448.071 981.005L451.913 271.396L635.9 135.139L620.014 822.594L448.071 981.005Z" fill="#C4C4C4"/>
<path d="M54.5598 141.495L447.845 271.172L628.939 131.852L219.093 15.7849L54.5598 141.495Z" fill="#E3E3E3"/>
<path d="M451.501 269.631L51.858 144.25M451.501 269.631L636.028 132.823M451.501 269.631L444.352 983.705M51.858 144.25L218.076 15.7289L636.028 132.823M51.858 144.25L49.3561 810.949L444.352 983.705M636.028 132.823L620.332 826.096L444.352 983.705" stroke="black" stroke-width="12" stroke-linejoin="bevel"/>
<circle cx="171.664" cy="370.49" r="26.2407" fill="#343434"/>
<circle cx="309.041" cy="414.011" r="26.2407" fill="#343434"/>
<path d="M282.751 374.94C319.041 354.036 341.64 365.548 348.403 373.917" stroke="#343434" stroke-width="8"/>
<path d="M215.06 352.192C189.378 309.896 152.319 311.864 137 318.135" stroke="#343434" stroke-width="8"/>
<path d="M274.271 486.74C242.981 453.989 210.322 462.994 197.904 471.59" stroke="#343434" stroke-width="8"/>
<path d="M328.5 436C328.5 593.345 295.5 494.055 295.5 649.5" stroke="#47E0F4" stroke-width="18" stroke-linecap="round" stroke-linejoin="round"/>
<path d="M147 388C152.294 420.429 149.858 449.812 149.858 482.5C149.858 491.766 143.484 490.423 141.931 501.294C140.329 512.505 137 520.782 137 532.618C137 572.643 137 612.667 137 652.692" stroke="#47E0F4" stroke-width="18" stroke-linecap="round" stroke-linejoin="round"/>
<path d="M153 389.787C165.599 391.346 178.141 393.566 190.595 391.941" stroke="#47E0F4" stroke-width="18" stroke-linecap="round" stroke-linejoin="round"/>
<path d="M288 433.787C300.599 435.346 313.141 437.566 325.595 435.941" stroke="#47E0F4" stroke-width="18" stroke-linecap="round" stroke-linejoin="round"/>
</svg>
